<?xml version="1.0" encoding="UTF-8"?>
<svg id="Layer_2" data-name="Layer 2" xmlns="http://www.w3.org/2000/svg" viewBox="0 0 512.53 111.02">
  <defs>
    <style>
      .cls-1 {
        fill: #fff;
      }
    </style>
  </defs>
  <g id="Layer_1-2" data-name="Layer 1">
    <g>
      <path class="cls-1" d="M74.63,89.33l-10.07,10.07v1.54l10.07,10.07,9.97-9.97c.1-.1.1-1.65,0-1.75l-9.97-9.97Z"/>
      <path class="cls-1" d="M245.88,46.16c-17.27,0-27.65-16.34-39.89-16.34-4.73,0-8.12,2.47-11.72,5.65l-4.73,11.82,1.03,1.13c2.67-.31,5.55-.82,8.02-.82,10.79,0,18.81,6.89,31.04,10.38-8.22,1.44-18.71,1.44-35.98,1.44h-3.7s-.07,0-.1,0h0c-8.74,0-10.49-.93-10.49-4.84V1.13h-2.06l-10.38,14.39,2.57,39.27c.1,1.23.21,2.47.31,3.6-2.98.93-5.65,1.03-8.53,1.03-.03,0-.06,0-.09,0h0c-8.12,0-13.47-2.89-13.98-10.49l-.41-6.48h-2.06l-2.16,8.74c-.41,1.75-.82,3.39-1.03,5.04-18.5,3.5-35.98,7.3-58.39,7.3-27.34,0-56.23-5.65-82.03-18.3l-1.13,1.75,15.11,22.51c17.99,8.74,38.04,12.54,61.68,12.54,26.73,0,45.95-4.83,59.11-9.46l5.14-12.95c-1.34,15.11,6.37,19.22,15.11,19.22.03,0,.06,0,.09,0h0c3.39,0,6.89-.92,9.35-3.69l4.63-13.77c1.75,12.13,6.27,17.48,14.6,17.48.04,0,.07,0,.1,0h0c9.25,0,16.24-2.46,24.57-9.55,3.29-2.78,10.38-9.35,23.64-9.35h12.54l4.63-12.23-.51-1.54h-3.91Z"/>
      <path class="cls-1" d="M360.29,51.5c.1-.1.1-1.65,0-1.75l-9.97-9.97-10.07,10.07v1.54l10.07,10.07,9.97-9.97Z"/>
      <path class="cls-1" d="M407.99,35.16h-2.06l-6.99,16.55c4.11,5.14,13.06,16.65,15.21,20.46-9.87,3.39-35.77,7.09-63.12,7.09-22.72,0-51.6-2.57-77.41-18.3l-1.13,1.75,15.11,22.51c17.99,8.74,38.04,12.54,61.68,12.54,26.73,0,47.8-4.83,60.86-9.25l4.93-14.39c2.06-6.17,3.39-11.82,2.67-17.78l2.57-6.07-12.34-15.11Z"/>
      <path class="cls-1" d="M476.14,11.72c.1-.1.1-1.64,0-1.75l-9.97-9.97-10.07,10.07v1.54l10.07,10.07,9.97-9.97Z"/>
      <path class="cls-1" d="M512.01,46.16h-3.91c-17.27,0-27.65-16.34-39.89-16.34-4.73,0-8.12,2.47-11.72,5.65l-4.73,11.82,1.03,1.13c2.67-.31,5.55-.82,8.02-.82,10.79,0,18.81,6.89,31.04,10.38-8.22,1.44-18.71,1.44-35.98,1.44h-3.7s-.07,0-.1,0h0c-8.74,0-10.49-.93-10.49-4.84V1.13h-2.06l-10.38,14.39,2.57,39.27c1.13,16.86,5.65,24.05,15.32,24.05.04,0,.07,0,.1,0h0c9.25,0,16.24-2.46,24.57-9.55,3.29-2.78,10.38-9.35,23.64-9.35h12.54l4.63-12.23-.51-1.54Z"/>
    </g>
  </g>
</svg>